# xmcd CD database file
#
# Track frame offsets:
#	150
#	21791
#	45633
#	71456
#	86179
#	104655
#	132138
#	149574
#	167614
#	190166
#	219615
#	234973
#
# Disc length: 3375 seconds
#
# Revision: 0
# Processed by: cddbd v1.5.1PL0 Copyright (c) Steve Scherf et al.
# Submitted via: CDex 1.51
#
DISCID=aa0d2d0c
DTITLE=やまんば - やまんば魂D
DYEAR=2005
DGENRE=Pop
TTITLE0=やまんば
TTITLE1=森の息
TTITLE2=鏡
TTITLE3=弱者
TTITLE4=花の目
TTITLE5=声
TTITLE6=蝉
TTITLE7=夢
TTITLE8=つぼみ
TTITLE9=明日の香
TTITLE10=筋肉愛
TTITLE11=締め歌
EXTD=YEAR: 2005
EXTT0=
EXTT1=
EXTT2=
EXTT3=
EXTT4=
EXTT5=
EXTT6=
EXTT7=
EXTT8=
EXTT9=
EXTT10=
EXTT11=
PLAYORDER=
